<svg width="27" height="27" viewBox="0 0 27 27" fill="none" xmlns="http://www.w3.org/2000/svg">
<path d="M26.9532 10.2428C26.8463 9.89191 26.5574 9.63597 26.2076 9.58179L18.0008 8.33573L14.3299 0.543012C14.1727 0.210479 13.8512 0 13.5014 0C13.1469 0 12.826 0.210479 12.6694 0.543012L8.99937 8.33573L0.794036 9.58179C0.443083 9.63597 0.153941 9.89191 0.0460697 10.2428C-0.0647731 10.5928 0.028537 10.9782 0.281425 11.2367L6.21939 17.3023L4.81855 25.8678C4.75852 26.2296 4.89908 26.5985 5.18466 26.8153C5.34572 26.9385 5.53561 26.9999 5.72907 26.9999C5.87587 26.9999 6.02504 26.965 6.15817 26.889L13.5017 22.8473L20.8423 26.889C21.1523 27.0606 21.5309 27.031 21.8164 26.8156C22.1014 26.5989 22.242 26.2299 22.1825 25.8681L20.782 17.3026L26.7206 11.237C26.9737 10.9782 27.0644 10.5928 26.9532 10.2428ZM13.5014 20.5659C11.528 20.5659 9.9197 18.8843 9.9197 16.8159C9.9197 14.7491 11.528 13.0665 13.5014 13.0665C15.4728 13.0665 17.0781 14.7491 17.0781 16.8159C17.0781 18.8843 15.4728 20.5659 13.5014 20.5659ZM18.487 11.6564H8.51262V10.9396H18.487V11.6564Z" fill="white"/>
</svg>
