<svg width="14" height="14" viewBox="0 0 14 14" fill="none" xmlns="http://www.w3.org/2000/svg">
<path opacity="0.5" d="M8.87098 8.16509C9.683 7.17196 10.0822 5.90471 9.98613 4.62547C9.89002 3.34623 9.30589 2.15286 8.35458 1.29222C7.40327 0.431577 6.15756 -0.0305014 4.87511 0.00156382C3.59267 0.033629 2.3716 0.557384 1.46449 1.46449C0.557384 2.3716 0.033629 3.59267 0.00156382 4.87511C-0.0305014 6.15756 0.431577 7.40327 1.29222 8.35458C2.15286 9.30589 3.34623 9.89002 4.62547 9.98613C5.90471 10.0822 7.17196 9.683 8.16509 8.87098L13.1417 13.8476C13.2359 13.9385 13.362 13.9889 13.4929 13.9877C13.6238 13.9866 13.749 13.9341 13.8415 13.8415C13.9341 13.749 13.9866 13.6238 13.9877 13.4929C13.9889 13.362 13.9385 13.2359 13.8476 13.1417L8.87098 8.16509ZM1.0144 5.00808C1.0144 4.21821 1.24863 3.44607 1.68746 2.78931C2.12629 2.13255 2.75002 1.62067 3.47977 1.3184C4.20952 1.01613 5.01251 0.93704 5.78721 1.09114C6.56191 1.24523 7.27352 1.6256 7.83204 2.18412C8.39057 2.74265 8.77093 3.45426 8.92503 4.22895C9.07913 5.00365 9.00004 5.80665 8.69777 6.5364C8.39549 7.26615 7.88361 7.88988 7.22686 8.32871C6.5701 8.76754 5.79796 9.00177 5.00808 9.00177C3.94926 9.00058 2.93414 8.57943 2.18544 7.83073C1.43673 7.08203 1.01559 6.06691 1.0144 5.00808Z" fill="white"/>
<path opacity="0.5" d="M8.00322 5.00808C8.00322 4.87568 7.95063 4.74871 7.85701 4.65509C7.76339 4.56147 7.63641 4.50887 7.50401 4.50887H5.50717V2.51203C5.50717 2.37963 5.45457 2.25265 5.36095 2.15903C5.26733 2.06541 5.14036 2.01282 5.00796 2.01282C4.87556 2.01282 4.74858 2.06541 4.65496 2.15903C4.56134 2.25265 4.50875 2.37963 4.50875 2.51203V4.50887H2.51191C2.37951 4.50887 2.25253 4.56147 2.15891 4.65509C2.06529 4.74871 2.0127 4.87568 2.0127 5.00808C2.0127 5.14048 2.06529 5.26746 2.15891 5.36108C2.25253 5.4547 2.37951 5.50729 2.51191 5.50729H4.50875V7.50413C4.50875 7.63653 4.56134 7.76351 4.65496 7.85713C4.74858 7.95075 4.87556 8.00334 5.00796 8.00334C5.14036 8.00334 5.26733 7.95075 5.36095 7.85713C5.45457 7.76351 5.50717 7.63653 5.50717 7.50413V5.50729H7.50401C7.63641 5.50729 7.76339 5.4547 7.85701 5.36108C7.95063 5.26746 8.00322 5.14048 8.00322 5.00808Z" fill="white"/>
</svg>
