<svg width="18" height="17" viewBox="0 0 18 17" fill="none" xmlns="http://www.w3.org/2000/svg">
<g opacity="0.5">
<path d="M16.6414 14.9493L15.004 16.5886L11.485 13.0713L9.89781 15.6226L7.05566 6.99744L15.6791 9.84138L13.1242 11.4321L16.6414 14.9493Z" fill="white"/>
<path d="M16.3888 14.6961C15.9112 15.1737 15.4336 15.6512 14.9561 16.1288C14.8878 16.197 14.8196 16.2653 14.7496 16.3353C14.9184 16.3353 15.0889 16.3353 15.2577 16.3353C14.8609 15.9385 14.4641 15.5417 14.0673 15.1449C13.4353 14.5129 12.8034 13.881 12.1714 13.249C12.0277 13.1053 11.8841 12.9617 11.7405 12.8181C11.5735 12.6511 11.2988 12.696 11.1767 12.8899C10.7117 13.6368 10.2467 14.3837 9.78167 15.1306C9.71704 15.2347 9.6524 15.3388 9.58777 15.443C9.80681 15.4717 10.0259 15.5004 10.2449 15.5291C10.1515 15.2437 10.0564 14.9582 9.96301 14.6727C9.73679 13.9851 9.50877 13.2956 9.28255 12.608C9.00964 11.7785 8.73495 10.949 8.46204 10.1178C8.22505 9.39779 7.98805 8.67963 7.75106 7.95967C7.63615 7.61315 7.53561 7.25766 7.40813 6.91653C7.40634 6.91114 7.40454 6.90755 7.40275 6.90217C7.25552 7.04939 7.1083 7.19661 6.96107 7.34384C7.24655 7.4372 7.53202 7.53236 7.81749 7.62572C8.50513 7.85194 9.19278 8.07996 9.88222 8.30618C10.7117 8.57908 11.5412 8.85378 12.3707 9.12669C13.0906 9.36368 13.8088 9.60068 14.5288 9.83767C14.8753 9.95258 15.22 10.0818 15.5719 10.1824C15.5773 10.1842 15.5809 10.186 15.5863 10.1878C15.5575 9.96874 15.5288 9.7497 15.5001 9.53066C14.7532 9.99567 14.0045 10.4625 13.2576 10.9275C13.1535 10.9921 13.0493 11.0568 12.9452 11.1214C12.7495 11.2435 12.7046 11.5182 12.8734 11.6852C13.2702 12.0819 13.667 12.4787 14.0637 12.8755C14.6957 13.5075 15.3277 14.1395 15.9597 14.7715C16.1033 14.9151 16.247 15.0587 16.3906 15.2024C16.5235 15.3352 16.7676 15.346 16.8987 15.2024C17.0298 15.0587 17.0405 14.8361 16.8987 14.6943C16.5019 14.2975 16.1051 13.9007 15.7083 13.5039C15.0764 12.8719 14.4444 12.2399 13.8124 11.608C13.6688 11.4643 13.5251 11.3207 13.3815 11.1771C13.3581 11.3656 13.333 11.5523 13.3097 11.7408C14.0566 11.2758 14.8053 10.809 15.5521 10.344C15.6563 10.2793 15.7604 10.2147 15.8645 10.1501C16.1339 9.9831 16.0728 9.5899 15.7784 9.49295C15.4929 9.39959 15.2074 9.30443 14.922 9.21107C14.2343 8.98485 13.5467 8.75683 12.8572 8.53061C12.0277 8.25771 11.1983 7.98301 10.3688 7.7101C9.64881 7.47311 8.93065 7.23611 8.21068 6.99912C7.86417 6.88421 7.51945 6.75674 7.16755 6.6544C7.16216 6.6526 7.15857 6.65081 7.15318 6.64901C6.89823 6.56463 6.62713 6.83573 6.71151 7.09068C6.80487 7.37616 6.90003 7.66163 6.99339 7.9471C7.21961 8.63474 7.44763 9.32418 7.67385 10.0118C7.94676 10.8413 8.22146 11.6708 8.49436 12.5021C8.73136 13.222 8.96835 13.9402 9.20535 14.6602C9.32025 15.0067 9.42618 15.3586 9.54827 15.7033C9.55007 15.7087 9.55186 15.7123 9.55366 15.7177C9.65061 16.0121 10.042 16.0714 10.2108 15.8038C10.6758 15.0569 11.1408 14.3101 11.6058 13.5632C11.6705 13.459 11.7351 13.3549 11.7997 13.2508C11.6112 13.2741 11.4245 13.2992 11.236 13.3226C11.6327 13.7194 12.0295 14.1161 12.4263 14.5129C13.0583 15.1449 13.6903 15.7769 14.3223 16.4089C14.4659 16.5525 14.6095 16.6962 14.7532 16.8398C14.8896 16.9763 15.123 16.978 15.2613 16.8398C15.7389 16.3622 16.2164 15.8846 16.694 15.4071C16.7623 15.3388 16.8305 15.2706 16.9005 15.2006C17.0334 15.0677 17.0441 14.8235 16.9005 14.6925C16.7533 14.565 16.5306 14.5542 16.3888 14.6961Z" fill="white"/>
<path d="M2.11101 3.07453C2.63168 3.5952 3.15235 4.11587 3.67302 4.63655C3.74663 4.71016 3.82024 4.78377 3.89386 4.85738C4.15958 5.1231 4.64793 5.14285 4.91006 4.85738C5.17399 4.57011 5.19374 4.12485 4.91006 3.84118C4.38939 3.3205 3.86872 2.79983 3.34805 2.27916C3.27444 2.20555 3.20083 2.13194 3.12721 2.05833C2.86149 1.7926 2.37314 1.77285 2.11101 2.05833C1.84888 2.34559 1.82733 2.79086 2.11101 3.07453Z" fill="white"/>
<path d="M3.1507 12.0119C3.67138 11.4912 4.19205 10.9706 4.71272 10.4499C4.78633 10.3763 4.85994 10.3027 4.93355 10.2291C5.19928 9.96335 5.21902 9.47499 4.93355 9.21286C4.64629 8.94894 4.20102 8.92919 3.91735 9.21286C3.39668 9.73353 2.87601 10.2542 2.35533 10.7749C2.28172 10.8485 2.20811 10.9221 2.1345 10.9957C1.86878 11.2614 1.84903 11.7498 2.1345 12.0119C2.42176 12.2758 2.86703 12.2956 3.1507 12.0119Z" fill="white"/>
<path d="M10.307 4.85726C10.8276 4.33659 11.3483 3.81591 11.869 3.29524C11.9426 3.22163 12.0162 3.14802 12.0898 3.07441C12.3555 2.80869 12.3753 2.32033 12.0898 2.0582C11.8025 1.79427 11.3573 1.77452 11.0736 2.0582C10.5529 2.57887 10.0323 3.09954 9.51158 3.62021C9.43797 3.69383 9.36436 3.76744 9.29075 3.84105C9.02503 4.10677 9.00528 4.59513 9.29075 4.85726C9.57801 5.11939 10.0233 5.14093 10.307 4.85726Z" fill="white"/>
<path d="M0.762755 7.74249C1.49888 7.74249 2.235 7.74249 2.97112 7.74249C3.07525 7.74249 3.17939 7.74249 3.28532 7.74249C3.66056 7.74249 4.02144 7.41213 4.00348 7.02432C3.98553 6.63471 3.68749 6.30615 3.28532 6.30615C2.5492 6.30615 1.81307 6.30615 1.07695 6.30615C0.972819 6.30615 0.868685 6.30615 0.762755 6.30615C0.387513 6.30615 0.0266343 6.63651 0.0445884 7.02432C0.0607472 7.41392 0.358786 7.74249 0.762755 7.74249Z" fill="white"/>
<path d="M7.81866 3.24137C7.81866 2.50525 7.81866 1.76913 7.81866 1.03301C7.81866 0.928874 7.81866 0.82474 7.81866 0.71881C7.81866 0.343568 7.4883 -0.0173111 7.10049 0.000643116C6.71089 0.0185973 6.38232 0.316637 6.38232 0.71881C6.38232 1.45493 6.38232 2.19105 6.38232 2.92717C6.38232 3.03131 6.38232 3.13544 6.38232 3.24137C6.38232 3.61661 6.71268 3.97749 7.10049 3.95954C7.4883 3.94338 7.81866 3.64534 7.81866 3.24137Z" fill="white"/>
</g>
</svg>
