<svg width="16" height="16" viewBox="0 0 16 16" fill="none" xmlns="http://www.w3.org/2000/svg">
<path opacity="0.5" d="M15.9063 7.78106L13.3455 5.69561C13.1439 5.494 12.8006 5.63576 12.8006 5.92243V7.20457H8.80042V3.20378H10.0824C10.3659 3.20378 10.5076 2.86041 10.3092 2.65879L8.23032 0.0945068C8.10433 -0.0315023 7.90274 -0.0315023 7.7799 0.0945068L5.69476 2.65564C5.49318 2.85726 5.63492 3.20063 5.92155 3.20063H7.2035V7.20142H3.2033V5.91928C3.2033 5.63576 2.85998 5.494 2.6584 5.69246L0.0944927 7.77161C-0.0314976 7.89762 -0.0314976 8.09923 0.0944927 8.22209L2.65525 10.3075C2.85683 10.5092 3.20015 10.3674 3.20015 10.0807V8.79858H7.20035V12.7994H5.9184C5.63492 12.7994 5.49318 13.1427 5.69161 13.3444L7.7673 15.9055C7.89329 16.0315 8.09488 16.0315 8.21772 15.9055L10.3029 13.3444C10.5044 13.1427 10.3627 12.7994 10.0761 12.7994H8.79413V8.79858H12.7943V10.0807C12.7943 10.3642 13.1376 10.506 13.3392 10.3075L15.9 8.23154C16.0323 8.10553 16.0323 7.90392 15.9063 7.78106Z" fill="white"/>
</svg>
