<svg width="33" height="30" viewBox="0 0 33 30" fill="none" xmlns="http://www.w3.org/2000/svg">
<path d="M7.06687 8.83369C9.42769 8.83369 11.3415 6.91987 11.3415 4.55906C11.3415 2.19824 9.42769 0.284424 7.06687 0.284424C4.70605 0.284424 2.79224 2.19824 2.79224 4.55906C2.79224 6.91987 4.70605 8.83369 7.06687 8.83369Z" fill="white"/>
<path d="M14.1339 16.6933V14.6939C14.1339 12.2119 12.3068 10.178 9.89371 9.83325C9.03189 10.2814 8.06665 10.5572 7.03246 10.5572C5.99828 10.5572 5.03304 10.2814 4.17122 9.83325C1.82706 10.178 0 12.2119 0 14.6939V16.6933C0 16.9347 0.206837 17.1415 0.448147 17.1415H13.6857C13.927 17.1415 14.1339 16.9347 14.1339 16.6933Z" fill="white"/>
<path d="M25.6822 21.4162C28.043 21.4162 29.9569 19.5024 29.9569 17.1416C29.9569 14.7808 28.043 12.8669 25.6822 12.8669C23.3214 12.8669 21.4076 14.7808 21.4076 17.1416C21.4076 19.5024 23.3214 21.4162 25.6822 21.4162Z" fill="white"/>
<path d="M28.509 22.416C27.6472 22.8642 26.682 23.1399 25.6478 23.1399C24.6136 23.1399 23.6484 22.8642 22.7865 22.416C20.4079 22.7607 18.5464 24.7946 18.5464 27.2767V29.2761C18.5464 29.5174 18.7532 29.7243 18.9945 29.7243H32.2321C32.4734 29.7243 32.6803 29.5174 32.6803 29.2761V27.2767C32.7492 24.7946 30.9221 22.7607 28.509 22.416Z" fill="white"/>
<path d="M18.8911 6.45504L17.4433 5.00718H24.7515V9.76443C24.7515 10.2815 25.1652 10.7297 25.7167 10.7297C26.2683 10.7297 26.682 10.316 26.682 9.76443V4.04194C26.682 3.52485 26.2683 3.0767 25.7167 3.0767H17.4433L18.8911 1.62884C19.2703 1.24964 19.2703 0.663602 18.8911 0.284401C18.5119 -0.0948003 17.9259 -0.0948003 17.5467 0.284401L14.4441 3.38696C14.2718 3.55932 14.1683 3.80063 14.1683 4.07641C14.1683 4.31772 14.2718 4.55903 14.4441 4.76587L17.5467 7.86843C17.719 8.04079 17.9948 8.14421 18.2361 8.14421C18.4774 8.14421 18.7188 8.04079 18.9256 7.86843C19.2703 7.45475 19.2703 6.83424 18.8911 6.45504Z" fill="white"/>
<path d="M12.4791 22.1748C12.0999 21.7956 11.5138 21.7956 11.1346 22.1748C10.7554 22.554 10.7554 23.14 11.1346 23.5192L12.5825 25.0015H5.27423V20.2443C5.27423 19.7272 4.86056 19.2791 4.30899 19.2791C3.75742 19.2791 3.34375 19.6927 3.34375 20.2443V25.9668C3.34375 26.4839 3.75742 26.932 4.30899 26.932H12.5825L11.1346 28.3799C10.7554 28.7591 10.7554 29.3451 11.1346 29.7243C11.307 29.8967 11.5828 30.0001 11.8241 30.0001C12.0654 30.0001 12.3067 29.8967 12.5135 29.7243L15.6161 26.6218C15.7884 26.4494 15.8919 26.2081 15.8919 25.9323C15.8919 25.691 15.7884 25.4497 15.6161 25.2429L12.4791 22.1748Z" fill="white"/>
</svg>
