<svg width="120" height="120" viewBox="0 0 120 120" fill="none" xmlns="http://www.w3.org/2000/svg">
<path fill-rule="evenodd" clip-rule="evenodd" d="M105.32 50.2468L70.9371 49.8667L60 15.7015L49.0629 49.8667L14.6801 50.2468L42.2847 71.8039L32.0221 106.242L60 85.3358L87.9779 106.242L77.7153 71.8039L105.32 50.2468ZM60.032 78.8904C52.8819 78.8904 47.0648 72.9874 47.0648 65.7305C47.0648 58.4749 52.8819 52.5706 60.032 52.5706C67.1834 52.5706 73.0005 58.4749 73.0005 65.7305C73.0005 72.9874 67.1834 78.8904 60.032 78.8904Z" fill="#C1A749" fill-opacity="0.2"/>
<path fill-rule="evenodd" clip-rule="evenodd" d="M120 45.8358L74.5108 45.3339L60 0L45.4892 45.3353L0 45.8358L36.5209 74.3563L22.9179 120L60 92.2924L97.0821 120L83.4791 74.3563L120 45.8358ZM91.085 110.706L60 87.4783L28.915 110.707L40.3186 72.445L9.7534 48.5762L47.8246 48.1542L60 10.1151L72.1768 48.1542L110.248 48.5762L79.6814 72.445L91.085 110.706Z" fill="#C1A749" fill-opacity="0.2"/>
<path fill-rule="evenodd" clip-rule="evenodd" d="M60.032 54.2977C53.819 54.2977 48.763 59.427 48.763 65.7316C48.763 72.0363 53.8177 77.1656 60.032 77.1656C66.2463 77.1656 71.301 72.0363 71.301 65.7316C71.301 59.427 66.2463 54.2977 60.032 54.2977ZM65.7065 65.6329V67.4833L64.2829 66.5581L63.3191 65.9318V68.2909H60.4346L63.699 71.6021L63.2191 72.0891L60.2959 69.1227V73.136H59.6148V68.8874L56.421 72.1283L55.9411 71.6414L59.2455 68.2895H56.5929V63.7378C55.5665 63.4876 54.7947 62.5543 54.7947 61.437C54.7947 60.1317 55.8451 59.0672 57.1314 59.0672C57.9219 59.0672 58.6217 59.4716 59.0443 60.0843C59.4482 59.0536 60.4372 58.3191 61.5929 58.3191C63.1072 58.3191 64.3415 59.5731 64.3415 61.107C64.3415 61.9767 63.9363 62.745 63.3205 63.2563V65.3313L64.2842 64.7063L65.7078 63.7811V65.6329H65.7065Z" fill="#C1A749" fill-opacity="0.2"/>
</svg>
